# xmcd CD database file
#
# Track frame offsets:
#	150
#	11665
#	30280
#	40975
#	56050
#	65650
#	75020
#	90315
#	102565
#	110865
#	116750
#	126765
#	138707
#	148247
#	158022
#	169910
#
# Disc length: 2395 seconds
#
# Revision: 9
# Processed by: cddbd v1.5.2PL0 Copyright (c) Steve Scherf et al.
# Submitted via: CDex 1.86
#
DISCID=dc095910
DTITLE=Elvis Presley - Heartbreaker
DYEAR=1988
DGENRE=Rock and Roll
TTITLE0=My Wish Came True
TTITLE1=Old Shep
TTITLE2=How's the World Treating You
TTITLE3=First in Line
TTITLE4=True Love
TTITLE5=I Believe
TTITLE6=That's When Your Heartaches Begin
TTITLE7=Love Me
TTITLE8=As Long as I Have You
TTITLE9=Steadfast, Loyal and True
TTITLE10=You're a Heartbreaker
TTITLE11=I'm Left, You're Right, She's Gone
TTITLE12=Known Only to Him
TTITLE13=I Believe In the Man in the Sky
TTITLE14=Joshua Fit the Battle
TTITLE15=He Knows What I need
EXTD=YEAR: 1988
EXTT0=
EXTT1=
EXTT2=
EXTT3=
EXTT4=
EXTT5=
EXTT6=
EXTT7=
EXTT8=
EXTT9=
EXTT10=
EXTT11=
EXTT12=
EXTT13=
EXTT14=
EXTT15=
PLAYORDER=
